<?xml version="1.0" standalone="no"?>
<!DOCTYPE svg PUBLIC "-//W3C//DTD SVG 20010904//EN"
 "http://www.w3.org/TR/2001/REC-SVG-20010904/DTD/svg10.dtd">
<svg version="1.0" xmlns="http://www.w3.org/2000/svg"
 width="167.000000pt" height="167.000000pt" viewBox="0 0 167.000000 167.000000"
 preserveAspectRatio="xMidYMid meet">
<metadata>
Created by potrace 1.14, written by Peter Selinger 2001-2017
</metadata>
<g transform="translate(0.000000,167.000000) scale(0.100000,-0.100000)"
fill="#000000" stroke="none">
<path d="M910 1340 c0 -5 -8 -10 -17 -11 -15 0 -15 -2 2 -9 29 -13 31 -12 31
10 0 11 -4 20 -8 20 -4 0 -8 -4 -8 -10z"/>
<path d="M940 1336 c0 -12 5 -16 14 -13 8 3 17 -1 20 -9 8 -22 7 -26 -4 -19
-14 9 -81 -6 -74 -16 3 -5 10 -6 16 -3 7 4 8 2 4 -4 -4 -6 -14 -8 -23 -5 -11
4 -14 3 -9 -5 4 -7 2 -12 -4 -12 -7 0 -36 -20 -64 -45 -53 -45 -74 -56 -60
-32 6 9 5 9 -8 -1 -12 -10 -17 -10 -26 1 -6 7 -26 14 -44 15 -18 1 -38 9 -44
17 -11 15 -29 21 -21 8 3 -5 -43 -8 -102 -8 -58 0 -96 1 -84 3 12 2 24 10 27
19 5 13 4 14 -9 3 -12 -10 -18 -10 -30 0 -13 11 -14 10 -10 -2 8 -20 -23 -51
-43 -43 -8 3 -23 -2 -32 -10 -14 -12 -20 -13 -26 -4 -5 8 -3 10 6 4 9 -6 11
-4 5 4 -5 9 -15 4 -36 -18 -17 -19 -34 -29 -43 -25 -14 5 -20 -5 -18 -27 2
-11 -36 -40 -55 -43 -10 -2 -18 -8 -18 -14 0 -6 -4 -14 -9 -19 -5 -5 -6 -2 -1
6 5 10 4 12 -4 7 -6 -4 -9 -11 -6 -16 3 -5 -4 -24 -15 -42 -14 -22 -20 -27
-18 -13 2 11 8 24 13 28 6 5 4 7 -5 4 -9 -2 -16 -17 -17 -38 -2 -46 -2 -46
-13 -29 -7 11 -10 11 -10 2 0 -7 -4 -11 -9 -8 -5 3 -14 -1 -21 -9 -7 -8 -17
-12 -23 -8 -6 4 -7 1 -3 -6 6 -9 13 -8 27 5 18 16 19 16 19 -4 0 -11 4 -22 10
-24 6 -2 6 -8 0 -18 -8 -13 -10 -13 -10 2 0 9 -5 20 -12 24 -8 5 -9 2 -5 -9 3
-9 1 -19 -5 -23 -6 -4 -8 -3 -5 3 4 6 1 13 -7 16 -10 4 -12 0 -9 -14 3 -10 12
-19 20 -19 8 0 11 -5 8 -10 -4 -6 -10 -8 -14 -6 -4 3 -8 0 -8 -7 0 -7 -4 -21
-7 -32 -6 -16 -4 -15 6 3 8 12 18 19 23 15 4 -4 5 -2 1 5 -4 6 -2 12 3 12 6 0
11 -16 11 -35 0 -23 -5 -35 -14 -35 -7 0 -16 -11 -18 -25 -3 -13 -1 -22 3 -19
17 10 9 -9 -8 -22 -15 -10 -16 -15 -5 -26 11 -11 12 -10 7 5 -7 16 9 25 18 10
2 -5 2 -2 1 5 -2 6 2 12 8 12 9 0 9 3 0 12 -15 15 -16 38 -1 38 5 0 7 -5 4
-11 -4 -5 1 -20 12 -31 10 -12 12 -18 6 -14 -9 5 -13 0 -13 -13 0 -12 5 -21
11 -21 5 0 7 6 3 13 -5 9 -4 9 6 0 16 -15 14 -18 -19 -28 -15 -5 -21 -3 -17 3
4 6 -2 8 -15 5 -19 -5 -20 -7 -4 -15 9 -6 30 -8 46 -6 28 4 51 -18 31 -31 -6
-3 -10 -18 -10 -33 0 -18 4 -25 12 -21 23 15 34 10 82 -39 27 -28 65 -59 84
-69 19 -11 49 -28 65 -38 17 -10 35 -16 41 -14 6 2 17 -3 24 -11 7 -9 17 -13
23 -9 5 3 7 1 3 -5 -3 -6 -2 -13 4 -17 6 -4 8 -11 4 -16 -3 -5 8 -8 25 -7 16
1 28 5 26 8 -1 3 3 11 11 18 13 12 18 8 15 -10 0 -5 7 -8 17 -8 9 0 28 -3 41
-7 16 -4 22 -3 17 5 -3 6 -2 13 3 16 5 4 13 1 17 -5 5 -8 3 -9 -6 -4 -8 5 -11
4 -6 -3 3 -6 15 -10 26 -9 13 1 16 5 9 13 -6 8 -4 14 7 18 23 9 31 7 14 -4
-11 -7 -11 -10 -2 -10 7 0 11 -3 8 -8 -2 -4 11 -8 29 -8 23 0 32 3 28 13 -3 7
-9 13 -15 13 -5 0 -6 -5 -2 -11 4 -7 1 -10 -6 -7 -8 2 -15 9 -17 14 -3 10 9
14 50 15 9 0 15 4 12 8 -2 5 4 11 16 14 16 4 18 3 9 -8 -7 -8 -10 -20 -7 -27
4 -8 6 -7 6 5 1 18 21 25 21 7 0 -6 6 -5 14 2 8 7 12 17 9 22 -3 4 -10 2 -15
-5 -8 -11 -9 -11 -5 1 2 8 12 14 22 12 9 -2 14 1 11 7 -4 5 3 12 14 16 11 3
20 11 20 16 0 6 5 7 11 3 8 -4 4 -13 -12 -25 -13 -10 -21 -19 -17 -19 16 0 88
73 81 83 -3 6 -1 7 5 3 7 -4 12 -1 12 7 0 26 25 38 46 22 15 -12 16 -16 5 -24
-9 -6 -5 -9 14 -9 20 0 23 3 14 10 -11 7 -9 8 6 6 12 -2 19 -10 17 -21 -2 -9
2 -17 8 -17 5 0 10 6 10 13 0 7 9 13 19 13 11 0 17 -4 14 -9 -2 -4 7 -5 21 -1
15 3 32 1 41 -6 8 -6 19 -9 25 -5 5 3 10 4 10 0 0 -3 -10 -10 -22 -15 l-23 -9
24 0 c13 -1 30 7 38 16 8 10 12 12 8 5 -3 -6 0 -12 7 -12 8 0 6 -5 -4 -11 -10
-5 -18 -14 -18 -20 0 -5 10 -1 22 11 22 20 32 24 57 20 9 -1 12 4 8 14 -7 17
3 18 115 18 38 0 46 3 43 17 -3 14 3 16 28 13 24 -4 29 -2 24 11 -8 22 3 28
20 11 9 -8 18 -12 22 -8 3 4 1 9 -6 11 -14 5 -14 4 46 72 22 24 44 41 50 37 7
-5 9 -1 5 9 -4 10 -2 15 6 13 7 -2 15 3 18 11 3 9 0 11 -7 6 -9 -5 -9 -1 1 14
7 12 18 21 25 21 7 0 13 8 13 18 0 15 -2 15 -11 2 -9 -12 -9 -11 -3 5 4 11 10
68 12 126 3 83 0 113 -12 137 -8 16 -12 32 -9 36 4 3 1 6 -6 6 -8 0 -6 8 4 24
11 17 13 26 5 31 -6 4 -14 4 -17 1 -4 -3 -1 -6 7 -6 10 0 10 -3 0 -15 -16 -20
-29 -10 -23 18 4 18 3 19 -6 7 -9 -13 -11 -13 -11 1 0 9 -7 19 -15 23 -8 3
-20 17 -27 31 -6 13 -31 34 -54 46 -47 22 -64 39 -41 39 8 0 17 7 21 15 5 13
2 13 -19 -1 -22 -15 -51 -12 -41 4 2 4 -10 8 -27 9 -17 0 -33 6 -35 12 -2 6
-8 9 -12 6 -5 -3 -7 6 -4 20 2 14 0 25 -6 25 -6 0 -8 -4 -5 -10 3 -5 1 -10 -5
-10 -6 0 -9 -4 -5 -9 5 -9 -6 -9 -65 4 -14 3 -42 6 -62 7 -21 1 -35 5 -32 10
3 5 14 6 24 3 10 -3 21 -1 25 5 7 12 -115 7 -136 -6 -11 -6 -12 -5 -2 7 10 13
10 16 -2 16 -14 0 -19 -10 -16 -29 0 -4 -14 -11 -32 -16 -27 -7 -34 -6 -44 12
-6 12 -15 19 -19 18 -4 -2 -11 2 -15 10 -7 10 -9 8 -9 -6z m237 -349 c2 -4 -1
-14 -7 -22 -9 -11 -9 -15 -1 -15 6 0 11 5 11 11 0 5 5 7 12 3 7 -5 9 -2 5 9
-4 11 -2 14 8 11 8 -3 13 -11 12 -16 -1 -6 4 -13 12 -16 8 -3 11 0 7 7 -5 7
-1 9 8 5 9 -3 14 -10 11 -14 -2 -4 4 -15 14 -24 18 -17 22 -51 8 -73 -10 -16
1 -35 15 -27 6 4 5 10 -3 15 -9 6 -10 9 -2 9 12 0 12 46 -1 70 -4 8 2 4 14
-10 13 -15 17 -26 10 -28 -8 -3 -8 -8 1 -18 9 -11 8 -14 -1 -14 -8 0 -10 -3
-7 -7 9 -9 -13 -34 -24 -27 -5 3 -9 0 -9 -5 0 -6 -5 -11 -11 -11 -5 0 -7 5 -3
11 4 8 0 9 -15 4 -12 -3 -21 -2 -21 4 0 5 8 12 18 14 16 4 16 5 -1 6 -10 0
-20 -6 -23 -14 -4 -8 -14 -15 -23 -15 -12 0 -13 2 -3 9 11 6 10 11 -3 25 -9 9
-13 16 -9 16 4 0 4 3 1 7 -4 3 -14 -2 -21 -13 -13 -18 -15 -18 -33 -1 -18 15
-21 15 -39 1 -18 -15 -18 -15 2 -5 17 8 25 6 39 -9 21 -23 14 -26 -16 -7 -18
10 -23 9 -26 -1 -3 -9 -17 0 -39 24 -18 21 -31 40 -28 43 3 3 9 -1 13 -8 6 -9
8 -3 7 17 -1 17 -5 34 -10 39 -5 5 -6 0 -2 -12 6 -16 5 -18 -6 -7 -10 10 -8
17 10 35 23 22 23 22 39 2 15 -19 15 -19 8 4 -5 15 -4 21 3 17 6 -3 14 -2 17
4 7 12 74 10 82 -3z m-633 -114 c30 4 46 3 46 -4 0 -6 -7 -9 -15 -5 -33 12
-12 -16 23 -32 21 -9 39 -19 39 -22 7 -24 17 -40 25 -40 5 0 7 4 3 9 -3 5 0
13 6 17 8 4 9 3 5 -4 -4 -7 -2 -12 5 -12 7 0 4 -6 -6 -14 -11 -8 -24 -12 -29
-9 -5 4 -6 1 -2 -6 4 -6 11 -9 15 -7 4 3 8 -2 8 -10 0 -9 -6 -13 -15 -9 -9 3
-12 0 -9 -9 4 -9 -4 -17 -21 -22 -39 -11 -112 -12 -112 -2 0 5 13 7 30 4 16
-2 32 -1 34 3 3 4 -12 7 -32 6 -20 0 -46 3 -57 8 -20 8 -20 8 -1 -7 21 -17 11
-22 -13 -7 -8 5 -11 16 -7 26 7 18 -9 45 -26 45 -5 0 -3 -7 6 -15 8 -9 12 -23
9 -32 -5 -14 -7 -13 -14 5 -4 11 -16 25 -25 30 -10 5 -18 20 -19 32 -2 18 2
21 24 16 14 -3 20 -3 12 1 -11 5 -11 7 0 15 9 5 4 6 -15 2 -22 -5 -27 -4 -21
6 5 8 21 10 46 7 47 -6 51 -1 7 11 l-33 8 24 13 c13 7 21 9 17 3 -3 -5 1 -13
10 -16 8 -3 12 -2 9 4 -3 6 -3 15 1 21 5 8 9 7 14 -1 6 -9 22 -11 54 -7z m-1
10 c-7 -2 -19 -2 -25 0 -7 3 -2 5 12 5 14 0 19 -2 13 -5z m72 -34 c-4 -5 2 -9
11 -9 10 0 15 -3 11 -6 -11 -11 -46 7 -40 21 3 8 9 12 14 9 5 -3 7 -10 4 -15z
m553 -23 c-14 -10 -15 -15 -5 -25 9 -10 8 -11 -5 -6 -20 8 -20 8 -12 29 3 9
14 16 23 16 14 -1 14 -2 -1 -14z m-58 -6 c0 -5 -2 -10 -4 -10 -3 0 -8 5 -11
10 -3 6 -1 10 4 10 6 0 11 -4 11 -10z m113 -27 c-7 -2 -21 -2 -30 0 -10 3 -4
5 12 5 17 0 24 -2 18 -5z m-798 -53 c3 -6 -1 -7 -9 -4 -18 7 -21 14 -7 14 6 0
13 -4 16 -10z m-305 -162 c0 -4 -7 -8 -15 -8 -8 0 -15 4 -15 8 0 5 7 9 15 9 8
0 15 -4 15 -9z m356 -220 c5 4 2 -1 -5 -10 -7 -10 -19 -18 -25 -18 -6 0 -4 5
4 10 13 8 12 10 -2 10 -10 0 -18 5 -18 10 0 7 6 7 19 1 10 -6 22 -7 27 -3z"/>
<path d="M1099 973 c-12 -16 -12 -17 2 -6 11 9 19 9 26 2 6 -6 17 -8 23 -4 9
6 9 10 -1 16 -21 13 -35 11 -50 -8z"/>
<path d="M1040 960 c-9 -6 -10 -10 -3 -10 6 0 15 5 18 10 8 12 4 12 -15 0z"/>
<path d="M1245 860 c-16 -7 -17 -9 -3 -9 9 -1 20 4 23 9 7 11 7 11 -20 0z"/>
<path d="M560 826 c0 -2 7 -7 16 -10 8 -3 12 -2 9 4 -6 10 -25 14 -25 6z"/>
<path d="M590 800 c-8 -5 -10 -10 -5 -10 6 0 17 5 25 10 8 5 11 10 5 10 -5 0
-17 -5 -25 -10z"/>
<path d="M460 790 c-9 -6 -10 -10 -3 -10 6 0 15 5 18 10 8 12 4 12 -15 0z"/>
<path d="M999 1330 c13 -11 27 -20 32 -20 17 0 9 9 -23 24 l-33 16 24 -20z"/>
<path d="M1281 1336 c-9 -11 -8 -15 5 -20 26 -10 32 -7 27 14 -6 23 -16 25
-32 6z"/>
<path d="M585 1260 c-3 -5 -1 -10 4 -10 6 0 11 5 11 10 0 6 -2 10 -4 10 -3 0
-8 -4 -11 -10z"/>
<path d="M615 1260 c3 -5 11 -10 16 -10 6 0 7 5 4 10 -3 6 -11 10 -16 10 -6 0
-7 -4 -4 -10z"/>
<path d="M1502 1265 c4 -4 -2 -17 -15 -28 -15 -14 -17 -18 -5 -14 9 3 19 3 21
-1 2 -4 3 -2 1 4 -1 6 2 16 8 22 6 6 5 12 -4 17 -7 5 -10 5 -6 0z"/>
<path d="M523 1243 c26 -2 47 -8 47 -14 0 -5 5 -9 11 -9 8 0 8 5 -1 15 -8 10
-28 14 -59 13 l-46 -2 48 -3z"/>
<path d="M483 1223 c9 -2 25 -2 35 0 9 3 1 5 -18 5 -19 0 -27 -2 -17 -5z"/>
<path d="M810 1220 c-9 -6 -10 -10 -3 -10 6 0 15 5 18 10 8 12 4 12 -15 0z"/>
<path d="M263 1178 c-22 -28 -24 -38 -8 -32 9 4 13 9 11 12 -3 3 -1 11 5 19 6
7 9 13 6 13 -2 0 -9 -6 -14 -12z"/>
<path d="M1585 1181 c-3 -5 -2 -12 3 -15 5 -3 9 1 9 9 0 17 -3 19 -12 6z"/>
<path d="M87 1092 c1 -8 3 -15 3 -18 0 -2 8 0 18 3 14 5 15 4 6 -8 -25 -32
-23 -53 1 -21 15 17 34 32 44 32 9 0 26 7 37 15 17 13 17 14 2 15 -10 0 -18
-4 -18 -9 0 -17 -54 -20 -68 -3 -7 10 -11 11 -7 5 7 -14 -10 -18 -18 -5 -2 4
-2 1 0 -6z"/>
<path d="M1658 1058 c-3 -7 -1 -24 3 -38 6 -22 7 -20 8 13 1 38 -3 47 -11 25z"/>
<path d="M26 785 c-3 -8 -1 -15 4 -15 6 0 10 7 10 15 0 8 -2 15 -4 15 -2 0 -6
-7 -10 -15z"/>
<path d="M1645 690 c-3 -5 -2 -10 4 -10 5 0 13 5 16 10 3 6 2 10 -4 10 -5 0
-13 -4 -16 -10z"/>
<path d="M1635 640 c-3 -5 -1 -10 4 -10 6 0 11 5 11 10 0 6 -2 10 -4 10 -3 0
-8 -4 -11 -10z"/>
<path d="M1563 590 c-28 -34 -28 -37 -3 -35 24 2 33 10 37 35 4 30 -10 30 -34
0z m24 -5 c0 -8 -7 -15 -15 -15 -12 0 -12 3 -2 15 7 8 13 15 15 15 1 0 2 -7 2
-15z"/>
<path d="M101 534 c0 -11 3 -14 6 -6 3 7 2 16 -1 19 -3 4 -6 -2 -5 -13z"/>
<path d="M120 542 c0 -5 9 -17 21 -28 19 -17 19 -19 2 -26 -14 -7 -13 -7 5 -4
18 4 22 1 18 -11 -5 -13 -4 -13 8 -4 11 9 17 6 30 -13 9 -14 16 -30 16 -36 0
-7 6 -10 13 -7 6 2 20 0 29 -4 11 -6 19 -5 24 3 4 6 3 8 -3 5 -11 -7 -71 40
-130 101 -18 18 -33 29 -33 24z"/>
<path d="M939 507 c-1 -1 -3 -15 -5 -32 -2 -21 0 -25 6 -15 5 8 7 17 4 21 -2
4 4 9 13 11 17 3 17 4 1 10 -10 4 -19 6 -19 5z"/>
<path d="M85 489 c-4 -6 -5 -12 -2 -15 2 -3 7 2 10 11 7 17 1 20 -8 4z"/>
<path d="M165 415 c0 -13 3 -21 8 -18 4 2 7 10 7 18 0 8 -3 16 -7 18 -5 3 -8
-5 -8 -18z"/>
<path d="M190 430 c0 -5 5 -10 11 -10 5 0 7 5 4 10 -3 6 -8 10 -11 10 -2 0 -4
-4 -4 -10z"/>
<path d="M1231 431 c-8 -5 -9 -11 -3 -15 5 -3 12 1 16 9 6 17 6 18 -13 6z"/>
<path d="M1150 411 c0 -6 4 -13 10 -16 6 -3 7 1 4 9 -7 18 -14 21 -14 7z"/>
<path d="M200 400 c8 -5 20 -10 25 -10 6 0 3 5 -5 10 -8 5 -19 10 -25 10 -5 0
-3 -5 5 -10z"/>
<path d="M324 371 c0 -11 6 -17 13 -14 6 3 9 11 6 19 -7 20 -19 17 -19 -5z"/>
<path d="M360 371 c0 -5 6 -11 13 -14 6 -2 4 -3 -5 -2 -9 2 -25 -6 -35 -17
-17 -19 -17 -19 7 -10 14 6 33 13 44 16 15 5 16 9 6 21 -14 17 -30 20 -30 6z"/>
<path d="M713 340 c12 -21 42 -27 51 -11 4 5 -3 7 -14 4 -11 -3 -20 -1 -20 5
0 5 -7 12 -15 16 -12 4 -13 2 -2 -14z"/>
</g>
</svg>
