<?xml version="1.0" standalone="no"?>
<!DOCTYPE svg PUBLIC "-//W3C//DTD SVG 20010904//EN"
 "http://www.w3.org/TR/2001/REC-SVG-20010904/DTD/svg10.dtd">
<svg version="1.0" xmlns="http://www.w3.org/2000/svg"
 width="167.000000pt" height="167.000000pt" viewBox="0 0 167.000000 167.000000"
 preserveAspectRatio="xMidYMid meet">
<metadata>
Created by potrace 1.14, written by Peter Selinger 2001-2017
</metadata>
<g transform="translate(0.000000,167.000000) scale(0.100000,-0.100000)"
fill="#000000" stroke="none">
<path d="M1065 1299 c-70 -9 -182 -49 -219 -79 -10 -8 -33 -27 -51 -42 -37
-31 -56 -34 -88 -14 -12 7 -35 17 -51 20 -26 6 -28 5 -17 -8 7 -8 10 -20 6
-26 -10 -16 25 -25 46 -12 14 9 25 8 51 -6 18 -9 37 -23 41 -29 11 -18 27 -16
44 5 8 9 11 11 7 3 -4 -9 -3 -12 4 -7 6 4 9 12 7 19 -3 7 5 24 17 40 21 24 39
31 101 36 15 2 6 18 -15 29 -21 10 -20 10 8 5 25 -4 35 0 47 17 9 13 17 17 22
11 9 -16 23 -13 42 9 15 17 30 20 93 20 98 0 122 -7 115 -31 -5 -15 -1 -19 18
-19 27 0 45 29 26 41 -11 7 -80 18 -149 24 -19 1 -66 -1 -105 -6z"/>
<path d="M1350 1260 c0 -11 40 -34 40 -23 1 4 8 -1 18 -12 26 -31 72 -58 72
-43 0 16 -64 68 -84 68 -8 0 -18 5 -21 10 -8 13 -25 13 -25 0z"/>
<path d="M1252 1185 c3 -14 1 -22 -4 -19 -16 10 -81 11 -106 2 -16 -6 -24 -4
-28 7 -4 8 -15 15 -25 15 -21 0 -24 -10 -9 -28 7 -9 7 -9 -2 -2 -17 14 -48 12
-48 -2 -1 -8 -6 -6 -14 5 -12 15 -15 15 -26 2 -9 -10 -9 -15 -1 -15 6 0 10 -3
9 -7 0 -5 2 -16 7 -26 5 -13 1 -24 -15 -39 -12 -11 -20 -28 -17 -37 2 -10 -2
-26 -9 -36 -13 -18 -14 -18 -14 2 0 15 -5 20 -17 17 -14 -4 -18 -15 -17 -47 1
-28 -4 -46 -15 -54 -14 -11 -14 -12 -1 -13 33 0 61 13 56 26 -3 8 -1 14 4 14
6 0 10 -9 10 -20 0 -11 -7 -20 -15 -20 -8 0 -15 -4 -15 -9 0 -5 7 -16 15 -25
8 -8 15 -19 15 -25 0 -6 4 -11 9 -11 5 0 26 -16 47 -35 26 -24 40 -31 45 -23
5 8 12 9 21 2 7 -6 44 -12 82 -13 38 -1 77 -6 88 -12 20 -11 58 -3 58 12 0 5
8 8 18 7 35 -3 52 2 52 16 0 13 27 31 42 28 4 -1 5 4 2 12 -3 8 0 17 5 21 6 3
9 11 6 16 -4 5 3 9 14 9 12 0 21 5 21 10 0 6 9 10 20 10 11 0 20 5 20 10 0 6
-12 10 -27 10 -20 0 -24 3 -15 12 8 8 8 19 -3 44 -7 18 -11 35 -7 38 3 3 0 6
-6 6 -8 0 -10 14 -7 46 6 48 2 50 -38 16 -16 -14 -17 -14 -11 1 7 19 -13 50
-27 41 -10 -6 -41 21 -34 28 3 3 -2 5 -10 5 -8 0 -12 -3 -10 -7 2 -4 -7 -5
-20 -2 -26 5 -32 16 -15 27 14 9 -7 35 -27 35 -11 0 -14 -7 -11 -25z m-198
-50 c-4 -8 -11 -12 -16 -9 -6 4 -5 10 3 15 19 12 19 11 13 -6z m151 -146 c55
-15 115 -77 115 -118 0 -33 -26 -66 -64 -81 -63 -24 -197 15 -231 67 -36 54
-15 126 38 136 43 8 103 7 142 -4z"/>
<path d="M433 1188 c-22 -3 -72 -19 -113 -35 -58 -22 -86 -41 -135 -90 -71
-70 -101 -124 -117 -213 -23 -119 21 -239 123 -341 184 -184 511 -197 702 -29
l46 41 82 -26 c131 -41 250 -38 379 9 132 49 230 155 260 283 12 52 9 152 -5
187 -8 19 -9 19 -16 0 -6 -16 -8 -16 -8 -2 -1 9 3 20 9 23 14 8 -46 103 -98
153 -24 23 -45 42 -48 42 -15 0 0 -39 19 -48 l22 -11 -22 0 c-31 -1 -40 -21
-10 -21 14 0 27 -7 31 -15 3 -8 17 -15 31 -15 16 0 24 -4 20 -10 -4 -6 1 -22
9 -35 9 -14 12 -25 6 -25 -17 0 -11 -20 15 -45 17 -18 20 -25 9 -25 -9 0 -12
-5 -8 -12 4 -7 3 -8 -4 -4 -6 4 -9 13 -5 21 3 8 0 15 -6 15 -18 0 -12 -46 9
-65 30 -27 17 -69 -42 -137 -28 -32 -53 -56 -56 -53 -3 2 -11 0 -19 -6 -9 -9
-13 -8 -13 0 0 6 -6 11 -14 11 -21 0 -48 -30 -42 -46 7 -20 -4 -17 -20 4 -13
16 -15 16 -29 -2 -12 -15 -17 -17 -29 -7 -12 10 -17 9 -28 -8 -7 -12 -19 -21
-26 -21 -7 0 -11 3 -9 8 3 4 -30 7 -73 8 -49 0 -85 5 -94 13 -13 11 -16 11
-16 0 0 -8 -6 -6 -16 7 -8 10 -13 13 -9 7 5 -10 0 -11 -18 -4 -14 6 -27 8 -29
5 -3 -2 -5 3 -5 11 0 8 4 12 9 9 4 -3 5 2 2 11 -4 10 -14 15 -25 12 -22 -6
-79 43 -79 67 0 9 -7 16 -15 16 -17 0 -20 -16 -5 -25 6 -3 10 -15 10 -26 0
-10 5 -19 10 -19 6 0 10 -13 10 -28 0 -32 -58 -107 -90 -117 -11 -4 -17 -11
-14 -17 5 -7 2 -8 -5 -4 -7 5 -10 14 -7 22 4 9 -2 14 -15 14 -16 0 -19 -5 -15
-22 3 -13 3 -17 0 -10 -11 23 -24 12 -25 -20 -1 -24 -3 -27 -6 -10 -6 29 -41
29 -53 -1 -7 -17 -9 -18 -9 -4 -1 9 -5 17 -10 17 -21 0 -41 -13 -41 -27 0 -12
-3 -13 -13 -5 -7 6 -26 9 -41 6 -15 -2 -25 -1 -23 3 3 4 -7 8 -21 9 -36 0 -81
10 -116 23 -16 7 -35 10 -43 7 -7 -3 -12 -2 -12 2 5 29 -3 42 -25 42 -12 0
-35 11 -50 25 -15 14 -31 25 -36 25 -5 0 -7 6 -4 14 3 8 -2 17 -13 20 -22 7
-48 66 -30 67 7 0 3 4 -8 8 -19 8 -19 8 3 15 27 9 29 26 3 26 -10 0 -22 8 -26
18 -11 25 -11 122 -1 122 5 0 6 3 3 7 -4 3 3 22 15 42 23 37 68 87 68 75 0 -3
6 -1 14 5 8 6 18 11 22 10 23 -4 36 2 31 15 -3 8 5 18 19 25 13 6 24 16 24 23
0 9 3 9 11 1 14 -14 46 -6 53 14 5 11 23 14 81 12 41 -1 78 1 82 4 3 4 0 7 -8
8 -103 3 -144 3 -176 -3z"/>
<path d="M620 1080 c0 -23 -19 -26 -39 -7 -9 7 -11 7 -8 1 10 -18 -76 -24 -86
-7 -9 15 -37 18 -37 4 0 -5 -9 -11 -21 -14 -16 -4 -19 -11 -14 -26 10 -32 -3
-25 -17 9 -10 21 -17 27 -27 21 -11 -7 -11 -14 3 -41 15 -32 15 -33 -10 -57
-17 -16 -24 -31 -21 -43 5 -20 -7 -28 -17 -11 -7 11 -46 2 -46 -10 0 -5 4 -9
9 -9 16 0 -10 -79 -28 -84 -9 -2 0 -4 19 -3 32 2 35 4 33 32 l-2 30 10 -29 c9
-22 9 -30 -2 -37 -12 -7 -11 -13 3 -36 10 -15 24 -27 33 -27 8 1 12 -2 9 -8
-3 -5 8 -22 25 -38 16 -16 33 -25 36 -20 4 6 15 6 31 0 48 -19 212 -29 223
-14 3 5 12 9 19 10 36 3 42 5 42 13 0 5 -6 11 -12 14 -7 2 -6 3 3 2 9 -1 27 6
40 17 13 11 17 17 9 13 -8 -3 3 10 25 29 22 20 43 36 48 36 13 0 7 20 -6 20
-10 0 -13 15 -12 55 1 41 -2 52 -11 44 -8 -6 -14 -5 -18 6 -4 11 -2 14 6 9 8
-5 9 0 5 16 -3 13 -1 30 5 37 13 16 -4 18 -32 3 -15 -8 -18 -7 -15 2 3 8 -14
23 -42 38 -55 29 -67 38 -76 63 -9 24 -37 22 -37 -3z m-39 -191 c54 -17 112
-79 111 -120 -2 -89 -140 -124 -250 -64 -90 49 -84 139 12 181 38 16 77 17
127 3z"/>
<path d="M1550 901 c0 -5 7 -11 15 -15 9 -3 12 -12 8 -22 -3 -9 0 -20 8 -25
21 -13 26 -11 33 14 4 16 -1 27 -17 39 -24 19 -47 23 -47 9z"/>
</g>
</svg>
